<?xml version="1.0" standalone="no"?>
<!DOCTYPE svg PUBLIC "-//W3C//DTD SVG 20010904//EN"
 "http://www.w3.org/TR/2001/REC-SVG-20010904/DTD/svg10.dtd">
<svg version="1.0" xmlns="http://www.w3.org/2000/svg"
 width="1080.000000pt" height="2092.000000pt" viewBox="0 0 1080.000000 2092.000000"
 preserveAspectRatio="xMidYMid meet">

<g transform="translate(0.000000,2092.000000) scale(0.100000,-0.100000)"
fill="#000000" stroke="none">
<path d="M6630 16930 c-36 -16 -74 -30 -85 -30 -28 0 -175 -53 -205 -73 -14
-9 -54 -23 -90 -32 -36 -9 -99 -32 -140 -50 -41 -18 -102 -43 -135 -55 -33
-12 -80 -31 -105 -41 -25 -10 -76 -28 -115 -39 -38 -12 -101 -36 -140 -55 -38
-19 -87 -41 -107 -49 -21 -8 -38 -19 -38 -25 0 -5 -25 -26 -55 -47 -71 -46
-103 -86 -154 -189 -36 -73 -43 -97 -51 -186 -5 -56 -7 -105 -5 -110 3 -4 10
-70 15 -146 6 -76 15 -167 20 -203 18 -110 27 -273 18 -302 -14 -39 -60 -56
-173 -63 -134 -8 -411 -33 -565 -50 -69 -8 -201 -19 -295 -25 -171 -11 -451
-37 -492 -47 -24 -5 -46 -73 -36 -111 9 -37 -15 -78 -58 -98 -22 -9 -44 -26
-50 -35 -5 -11 -6 -68 -1 -146 9 -137 25 -183 64 -183 26 0 78 -53 78 -80 0
-28 44 -156 82 -240 89 -199 169 -333 283 -477 33 -42 78 -99 100 -127 68 -89
261 -287 350 -361 26 -22 66 -57 89 -77 37 -34 61 -53 136 -105 204 -142 244
-197 280 -381 11 -53 9 -64 -24 -175 -44 -142 -111 -254 -204 -337 -118 -106
-317 -307 -351 -355 -30 -42 -76 -122 -148 -258 -13 -23 -23 -48 -23 -56 0 -8
-11 -33 -24 -55 -13 -23 -33 -72 -45 -111 -13 -38 -29 -83 -36 -100 -37 -85
-91 -336 -110 -515 -4 -30 -22 -90 -42 -133 -31 -69 -35 -84 -29 -130 22 -165
15 -162 329 -142 133 8 274 19 312 25 85 12 246 26 455 40 85 6 202 15 260 21
58 5 164 14 235 19 252 18 392 30 545 46 152 15 233 22 515 43 77 6 174 15
215 20 107 15 272 29 518 46 117 8 221 19 232 25 37 20 52 66 48 149 -3 70 -7
82 -45 141 -33 53 -44 80 -54 145 -7 44 -25 112 -41 152 -15 39 -28 76 -28 82
0 27 -125 265 -179 341 -25 35 -54 78 -65 95 -10 16 -30 44 -45 61 -14 17 -35
44 -46 60 -88 125 -390 416 -534 514 -196 134 -286 222 -331 328 -30 70 -26
204 10 272 20 39 139 173 209 234 13 12 42 41 65 65 22 24 51 53 64 64 12 12
22 28 22 37 0 9 18 34 40 55 22 21 40 43 40 48 0 5 15 26 33 47 17 21 43 60
57 87 14 26 35 62 47 78 12 17 37 59 55 95 19 36 39 74 46 85 46 82 114 237
131 300 12 42 28 90 36 105 8 16 24 68 35 117 11 48 26 104 34 123 21 54 35
127 42 220 l7 85 54 51 c30 29 54 60 54 70 0 11 -3 76 -7 146 -8 142 -11 149
-87 163 -48 9 -68 35 -78 97 -9 60 -48 103 -84 93 -11 -3 -85 -10 -165 -15
-80 -6 -219 -19 -310 -30 -91 -11 -280 -27 -420 -35 -140 -8 -325 -24 -410
-35 -85 -11 -183 -20 -217 -20 -97 0 -96 -3 -122 345 -5 66 -16 153 -25 193
-22 97 -25 245 -7 297 8 22 37 63 64 93 54 56 181 142 212 142 15 0 89 29 243
96 18 8 39 14 47 14 19 0 164 50 190 65 11 7 49 20 85 30 36 9 76 25 90 35 14
9 43 20 65 24 52 9 95 25 119 45 10 9 39 21 65 28 115 28 156 44 177 65 l23
23 -20 65 c-33 106 -39 115 -84 117 -27 2 -61 -7 -105 -27z m479 -2189 c26
-17 24 -100 -5 -196 -14 -49 -33 -123 -40 -163 -7 -40 -16 -77 -20 -84 -4 -6
-19 -45 -34 -87 -16 -42 -39 -105 -53 -141 -45 -117 -164 -346 -223 -427 -16
-23 -60 -85 -98 -139 -87 -124 -146 -191 -286 -330 -119 -116 -144 -155 -180
-273 -30 -96 -24 -170 20 -271 45 -104 128 -194 286 -309 140 -103 160 -120
308 -255 101 -93 210 -211 281 -306 22 -29 52 -64 67 -77 15 -14 33 -42 41
-62 9 -20 29 -49 46 -65 17 -17 31 -37 31 -46 0 -9 14 -38 32 -66 39 -62 60
-128 52 -169 -4 -26 -15 -36 -57 -57 -146 -72 -237 -93 -382 -90 -140 3 -328
26 -430 53 -218 58 -433 129 -472 157 -15 11 -38 22 -50 26 -13 4 -41 23 -65
42 -23 20 -58 44 -78 54 -20 10 -43 26 -50 35 -8 9 -39 30 -71 45 -31 16 -79
44 -105 62 -56 37 -193 108 -210 108 -7 0 -40 13 -75 30 -63 29 -114 43 -274
76 -84 17 -289 16 -329 -1 -17 -8 -19 -5 -13 28 7 47 54 104 142 175 135 108
229 216 279 320 62 127 80 197 81 307 0 138 -16 201 -75 288 -48 72 -106 124
-275 247 -237 172 -568 524 -720 766 -93 148 -124 200 -125 210 0 6 -16 41
-35 78 -19 37 -35 74 -35 82 0 8 -9 31 -20 51 -35 66 -22 107 37 116 21 3 133
11 248 17 116 6 280 20 365 30 85 10 232 24 325 30 94 6 235 18 315 25 188 19
344 31 560 45 205 13 335 24 515 44 72 8 213 22 315 31 102 9 248 22 325 29
178 17 197 18 214 7z"/>
<path d="M4863 13840 c-39 -4 -87 -16 -105 -25 -18 -10 -53 -23 -78 -29 -53
-14 -59 -32 -36 -104 28 -82 120 -236 168 -279 12 -12 52 -49 88 -83 36 -34
92 -75 125 -91 33 -16 67 -33 75 -38 197 -116 477 -166 695 -125 44 8 103 19
130 23 58 10 143 41 176 65 13 9 31 16 41 16 10 0 35 15 55 34 21 18 53 41 71
50 39 20 65 71 50 99 -8 16 -18 17 -77 11 -59 -5 -84 -2 -185 26 -127 35 -198
75 -289 160 -71 68 -97 88 -152 122 -75 47 -204 108 -228 108 -12 1 -40 8 -62
16 -113 44 -294 61 -462 44z"/>
<path d="M5517 12715 c-28 -22 -49 -47 -53 -63 -3 -15 -8 -35 -11 -44 -10 -39
56 -132 102 -144 66 -16 131 22 162 95 25 59 11 93 -59 145 -34 25 -69 46 -78
46 -10 0 -38 -16 -63 -35z"/>
<path d="M5930 12240 c-27 -27 -27 -90 -1 -114 26 -24 72 -35 97 -24 21 10 44
59 44 95 0 53 -100 83 -140 43z"/>
<path d="M5099 9381 c-21 -17 -23 -27 -26 -158 -5 -188 -6 -186 143 -191 125
-4 160 -14 168 -48 4 -13 6 -504 5 -1092 -1 -766 1 -1074 9 -1089 15 -27 55
-33 224 -33 133 0 137 1 168 27 l32 26 -3 1088 c-3 874 -1 1090 9 1101 8 8 54
15 126 18 155 7 150 2 154 177 2 138 2 139 -24 164 l-26 24 -468 2 c-441 2
-470 1 -491 -16z"/>
<path d="M6602 9390 c-47 -11 -71 -51 -63 -103 1 -4 -5 -38 -14 -75 -23 -108
-43 -239 -55 -362 -6 -63 -19 -162 -29 -220 -11 -58 -24 -141 -31 -185 -6 -44
-22 -152 -36 -240 -13 -88 -24 -180 -24 -205 0 -25 -7 -70 -15 -100 -8 -30
-24 -134 -35 -230 -12 -96 -32 -240 -45 -320 -13 -80 -34 -227 -46 -327 -32
-261 -31 -261 203 -253 188 6 192 9 203 141 12 159 32 281 50 298 13 13 44 17
166 19 157 4 204 -5 213 -37 2 -9 7 -47 11 -86 12 -142 37 -280 54 -299 32
-37 71 -45 206 -41 144 4 157 7 178 39 13 20 13 34 -4 122 -10 54 -25 153 -33
219 -8 66 -22 154 -31 195 -9 41 -25 138 -36 215 -10 77 -26 181 -34 230 -9
50 -22 146 -31 215 -8 69 -21 147 -29 173 -8 27 -19 96 -25 155 -13 137 -28
219 -45 257 -7 17 -22 118 -34 226 -11 108 -25 208 -31 224 -6 15 -19 87 -29
161 -20 139 -35 179 -74 193 -29 10 -413 12 -455 1z m258 -802 c0 -35 33 -297
50 -397 11 -62 20 -134 20 -160 0 -25 9 -98 20 -161 43 -249 44 -258 31 -274
-10 -11 -37 -15 -123 -15 -60 0 -118 4 -129 9 -22 12 -26 77 -9 169 5 31 14
112 20 181 26 321 45 452 91 623 9 35 29 52 29 25z"/>
<path d="M7853 9390 c-48 -3 -78 -10 -88 -21 -15 -15 -16 -132 -15 -1278 0
-913 4 -1268 12 -1286 7 -16 24 -28 47 -34 28 -7 777 -18 828 -12 6 0 21 17
34 37 21 34 22 43 15 168 -9 186 4 177 -263 175 -190 -1 -207 1 -225 18 -18
19 -19 51 -22 1108 l-4 1089 -22 18 c-12 10 -30 19 -39 19 -42 4 -193 3 -258
-1z"/>
<path d="M8927 9389 c-20 -6 -43 -21 -49 -33 -16 -27 -13 -2529 3 -2558 17
-32 57 -40 221 -43 153 -4 157 -3 182 20 14 13 27 32 28 42 1 10 2 223 2 473
1 250 5 461 10 468 6 10 15 -2 33 -40 13 -29 31 -60 38 -68 8 -9 21 -47 29
-85 9 -39 25 -89 37 -112 11 -23 29 -73 39 -110 27 -99 73 -228 87 -245 7 -8
17 -38 24 -67 19 -90 82 -232 113 -255 25 -19 41 -21 203 -21 l175 0 24 28
c31 36 30 45 -6 117 -16 32 -34 80 -40 106 -6 27 -17 62 -25 79 -8 16 -30 75
-49 130 -19 55 -49 138 -66 185 -17 47 -40 110 -49 140 -10 30 -27 73 -39 95
-11 22 -23 60 -27 85 -4 25 -11 50 -16 56 -5 7 -25 56 -44 110 -18 55 -41 117
-49 139 -23 61 -19 107 18 203 18 48 50 141 71 207 21 66 43 134 51 150 7 17
24 64 37 105 14 41 33 98 42 125 80 238 155 480 155 504 0 16 -8 38 -17 49
-20 23 -31 24 -235 23 -120 -1 -128 -2 -157 -27 -22 -18 -36 -45 -52 -97 -11
-40 -30 -94 -41 -122 -20 -51 -56 -165 -84 -264 -9 -30 -26 -76 -39 -102 -13
-25 -29 -77 -36 -115 -7 -38 -18 -76 -26 -85 -7 -8 -13 -21 -13 -27 0 -18 -53
-142 -61 -142 -15 0 -18 61 -21 490 l-3 445 -24 23 c-21 19 -35 22 -105 22
-45 0 -110 2 -146 5 -36 2 -82 -1 -103 -6z"/>
<path d="M1013 9365 c-18 -8 -33 -20 -34 -27 -5 -109 0 -240 11 -253 10 -12
37 -15 136 -15 154 0 164 -6 164 -102 1 -35 1 -524 0 -1088 -1 -886 1 -1028
14 -1045 13 -19 26 -20 170 -20 101 0 159 4 166 11 8 8 11 307 10 1104 l-1
1093 22 23 c21 22 30 24 129 24 143 0 142 -1 138 156 -3 116 -4 119 -28 130
-17 8 -158 14 -445 17 -347 5 -426 4 -452 -8z"/>
<path d="M2319 9371 c-42 -3 -84 -12 -93 -20 -16 -13 -17 -102 -15 -1250 0
-679 5 -1245 9 -1257 5 -12 19 -25 31 -29 41 -13 307 -9 324 5 13 11 14 52 8
329 -10 402 -7 518 12 547 13 20 13 28 0 63 -13 39 -17 266 -25 1547 0 22 -7
36 -22 46 -29 19 -129 27 -229 19z"/>
<path d="M3158 9373 c-99 -3 -109 -6 -123 -26 -22 -34 -27 -2513 -5 -2527 8
-5 58 -10 111 -10 53 0 123 -3 155 -6 107 -11 99 -56 99 540 0 374 3 518 11
526 36 36 73 -25 119 -198 14 -51 32 -106 41 -123 14 -29 30 -70 84 -229 13
-36 33 -92 46 -126 12 -33 26 -78 29 -100 4 -21 18 -64 30 -94 13 -30 34 -83
45 -117 30 -84 46 -90 221 -81 163 8 179 12 179 40 0 23 -18 90 -56 203 -12
39 -25 84 -29 100 -3 17 -19 59 -35 95 -35 81 -112 295 -150 417 -16 51 -36
102 -44 115 -8 13 -23 60 -34 105 -12 45 -30 95 -42 110 -39 53 -36 220 4 288
7 11 18 45 24 75 7 30 24 80 38 110 15 30 32 80 39 110 7 30 29 100 50 155 20
55 48 136 61 180 14 44 36 105 50 136 13 31 27 71 31 90 3 18 17 62 31 98 36
98 38 117 14 130 -29 15 -290 16 -323 1 -15 -7 -31 -22 -37 -34 -21 -45 -114
-335 -127 -396 -4 -19 -12 -41 -18 -48 -6 -7 -25 -55 -43 -105 -18 -51 -39
-110 -48 -132 -8 -22 -15 -49 -16 -60 0 -11 -20 -78 -44 -149 -43 -129 -63
-159 -90 -137 -16 13 -40 126 -31 142 8 12 13 897 5 909 -9 14 -59 30 -88 28
-15 -1 -75 -4 -134 -5z"/>
<path d="M4500 8698 c-32 -12 -39 -41 -43 -186 -6 -187 -17 -177 199 -177 217
0 210 -6 207 176 -2 141 -12 174 -56 184 -36 8 -287 11 -307 3z"/>
<path d="M4470 7543 c-20 -25 -21 -36 -16 -93 3 -36 6 -99 6 -141 0 -44 5 -82
13 -92 10 -13 40 -18 167 -23 197 -9 215 -2 225 79 4 30 5 100 3 157 -4 142
-1 140 -213 140 l-164 0 -21 -27z"/>
<path d="M3043 6329 c-16 -16 -17 -53 -3 -80 7 -13 21 -19 45 -19 24 0 38 6
45 19 14 27 13 56 -3 70 -22 18 -71 24 -84 10z"/>
<path d="M3916 6288 c-11 -25 -13 -97 -12 -308 2 -151 6 -283 10 -292 5 -11
19 -18 36 -18 22 0 30 6 39 31 6 18 11 43 11 55 0 44 41 30 106 -35 64 -65
102 -82 126 -57 26 25 9 62 -58 131 -41 42 -67 79 -75 105 l-12 40 76 76 c80
80 96 116 62 144 -20 17 -51 4 -104 -44 -25 -23 -63 -54 -83 -69 -44 -33 -41
-44 -43 123 -1 130 -7 150 -42 150 -18 0 -27 -8 -37 -32z"/>
<path d="M7117 6309 c-44 -26 -48 -54 -44 -334 4 -221 7 -268 20 -289 24 -36
55 -43 81 -17 19 20 21 33 23 152 0 72 4 147 8 166 11 61 98 93 163 59 56 -29
59 -40 67 -201 9 -197 30 -232 96 -165 l30 29 -6 133 c-9 185 -22 225 -90 285
l-54 48 -68 -4 c-37 -2 -80 -9 -95 -17 -25 -13 -28 -12 -42 8 -10 14 -16 44
-16 80 0 46 -4 59 -19 68 -24 12 -31 12 -54 -1z"/>
<path d="M2045 6299 c-54 -16 -55 -22 -55 -285 0 -132 3 -263 7 -289 5 -42 10
-49 42 -62 50 -21 242 -14 289 10 17 9 45 24 60 32 62 32 111 92 127 152 38
145 9 292 -69 357 -79 64 -103 73 -227 85 -131 12 -133 12 -174 0z m240 -101
c57 -21 72 -36 125 -118 47 -72 39 -169 -18 -235 -16 -18 -31 -38 -33 -44 -6
-16 -137 -61 -178 -61 -26 0 -41 8 -65 33 l-30 33 2 189 c2 179 4 191 23 208
29 24 104 22 174 -5z"/>
<path d="M3485 6169 c-27 -5 -78 -12 -112 -15 -37 -4 -68 -13 -75 -22 -18 -20
-24 -372 -8 -424 12 -42 38 -50 76 -23 19 13 22 27 26 158 8 197 29 237 123
237 58 0 77 -12 116 -75 16 -25 19 -50 19 -158 0 -137 13 -187 49 -187 32 0
41 44 41 203 0 185 -7 215 -63 261 -37 30 -105 58 -132 55 -5 -1 -32 -5 -60
-10z"/>
<path d="M2763 6156 c-96 -17 -94 -11 -96 -244 -2 -184 0 -202 17 -221 27 -30
64 -27 76 5 6 14 10 84 10 156 0 152 8 173 82 213 56 31 74 56 58 85 -12 23
-45 24 -147 6z"/>
<path d="M4474 6162 c-35 -11 -104 -80 -110 -110 -10 -51 12 -107 54 -136 21
-14 43 -26 50 -26 7 0 29 -9 49 -20 21 -11 46 -20 55 -20 24 0 58 -35 58 -60
0 -30 -36 -60 -71 -60 -20 0 -45 12 -74 36 -34 28 -51 35 -77 32 -29 -3 -33
-7 -36 -37 -3 -27 2 -39 25 -58 45 -38 75 -51 134 -58 78 -10 126 6 178 59 42
43 44 47 38 91 -5 47 -29 91 -58 106 -7 5 -48 22 -89 40 -100 42 -121 62 -108
100 5 15 18 31 29 34 29 10 82 -12 114 -45 37 -39 81 -41 95 -5 6 15 6 34 1
48 -10 25 -55 69 -88 86 -23 12 -133 13 -169 3z"/>
<path d="M5360 6159 c-13 -5 -32 -17 -41 -25 -15 -13 -21 -13 -52 2 -29 14
-42 15 -61 6 -33 -15 -37 -53 -33 -391 l4 -283 23 -18 c18 -14 29 -16 43 -9
27 15 37 52 36 140 -1 102 11 120 54 83 29 -24 37 -26 112 -22 76 3 85 6 140
43 49 34 63 50 88 105 22 49 29 79 29 121 -1 77 -19 115 -90 190 l-60 64 -83
2 c-46 2 -95 -2 -109 -8z m178 -134 c44 -46 48 -60 42 -165 -2 -40 -8 -50 -48
-87 -28 -25 -57 -42 -72 -43 -44 0 -90 18 -118 48 -15 16 -33 31 -40 33 -19 6
-32 88 -22 134 16 73 115 142 185 129 18 -3 48 -24 73 -49z"/>
<path d="M5919 6141 c-97 -61 -145 -153 -133 -257 8 -68 55 -163 93 -187 15
-9 38 -26 52 -38 23 -18 39 -21 104 -20 95 1 150 23 191 77 39 49 46 71 34 94
-8 14 -3 34 16 79 26 60 26 62 10 104 -27 69 -69 120 -121 149 -42 23 -62 28
-126 28 -66 0 -81 -4 -120 -29z m206 -96 c28 -27 33 -66 11 -84 -17 -15 -193
-8 -208 7 -18 18 0 59 34 80 22 13 52 21 86 21 43 1 57 -3 77 -24z m52 -211
c4 -12 -8 -30 -40 -60 -59 -57 -108 -60 -168 -13 -39 31 -52 72 -26 82 6 3 61
6 120 6 91 1 109 -2 114 -15z"/>
<path d="M6551 6155 c-18 -8 -51 -15 -72 -15 -28 0 -41 -5 -49 -20 -7 -13 -11
-94 -11 -220 1 -211 8 -255 43 -245 10 3 27 8 38 11 39 11 44 51 37 269 -2 53
31 99 89 127 47 22 66 57 47 87 -13 21 -79 25 -122 6z"/>
<path d="M7835 6156 c-16 -7 -53 -34 -81 -59 -42 -38 -53 -56 -67 -106 -21
-76 -21 -105 0 -184 18 -69 53 -113 120 -152 34 -21 55 -25 116 -25 46 0 89 6
113 16 73 31 133 111 163 219 8 32 6 50 -16 114 -30 89 -38 99 -116 152 -55
36 -64 39 -131 39 -39 -1 -84 -7 -101 -14z m193 -139 c36 -34 52 -71 52 -124
-1 -59 -15 -85 -70 -129 -33 -26 -52 -34 -85 -34 -36 0 -47 6 -89 47 -54 55
-61 74 -52 147 9 71 54 117 124 126 54 7 87 -2 120 -33z"/>
<path d="M9097 6163 c-4 -3 -37 -9 -74 -12 -102 -9 -103 -12 -105 -251 -2
-167 1 -200 15 -227 10 -18 22 -33 28 -33 25 0 79 33 85 52 3 12 5 66 3 122
-1 56 -2 115 -1 133 2 41 46 93 78 93 52 0 85 77 48 114 -16 16 -65 22 -77 9z"/>
<path d="M8329 6131 c-23 -19 -24 -24 -22 -138 1 -65 7 -149 14 -188 11 -65
15 -74 65 -124 l53 -53 93 6 c51 4 116 8 143 10 28 2 64 8 80 13 l30 9 3 205
c4 259 3 265 -46 272 -29 5 -41 2 -57 -13 -18 -18 -21 -38 -25 -173 -3 -90
-10 -161 -17 -173 -15 -26 -71 -54 -109 -54 -20 0 -39 12 -69 45 l-42 45 -1
152 c-1 133 -3 154 -18 165 -25 18 -48 16 -75 -6z"/>
<path d="M3036 6118 c-8 -30 -8 -386 0 -415 5 -19 13 -23 44 -23 21 0 43 6 49
14 13 15 17 400 5 431 -4 10 -20 15 -49 15 -36 0 -44 -4 -49 -22z"/>
</g>
</svg>
